<?xml version="1.0" encoding="UTF-8"?>
<svg id="Layer_2" data-name="Layer 2" xmlns="http://www.w3.org/2000/svg" viewBox="0 0 125.99 130.1">
  <defs>
    <style>
      .cls-1 {
        fill: #3b82f6;
      }

      .cls-1, .cls-2, .cls-3, .cls-4, .cls-5 {
        stroke-width: 0px;
      }

      .cls-2 {
        fill: none;
      }

      .cls-3 {
        fill: #fff;
        opacity: .15;
      }

      .cls-3, .cls-5 {
        fill-rule: evenodd;
      }

      .cls-4, .cls-5 {
        fill: #071e3c;
      }
    </style>
  </defs>
  <g id="Layer_1-2" data-name="Layer 1">
    <g>
      <path class="cls-1" d="M102.37,94.27c-4.06,4.96-8.95,9.23-14.43,12.61l-11.99-11.13c5.88-2.83,11.01-6.98,14.99-12.08l11.42,10.6Z"/>
      <path class="cls-2" d="M1.11,25.53h59.93v59.93H1.11V25.53Z"/>
      <path class="cls-5" d="M82.39,44.81c-.48-.56-1.02-1.07-1.62-1.51l-14.77-10.84c-3.46-2.54-8.18-2.54-11.66,0l-14.78,10.84c-2.54,1.86-4.03,4.81-4.03,7.94v19.64c0,1.9.54,3.67,1.46,5.18,1.81,2.1,4.5,3.43,7.48,3.43h29.55c5.45,0,9.86-4.41,9.86-9.86v-19.64c0-1.86-.53-3.65-1.49-5.19ZM52.69,64.71v-4.92c0-3.63,2.94-6.57,6.57-6.57,2.46,0,4.61,1.36,5.73,3.38.54.94.84,2.03.84,3.19v4.92c0,.9-.74,1.64-1.64,1.64h-9.86c-.25,0-.5-.06-.71-.17-.54-.26-.92-.83-.92-1.48Z"/>
      <line class="cls-2" x1="65.8" y1="57.06" x2="51.73" y2="66.1"/>
      <path class="cls-3" d="M82.67,45.27l-17.66,11.36c.51.92.8,1.99.8,3.12v4.92c0,.9-.74,1.64-1.64,1.64h-9.86c-.25,0-.5-.06-.71-.17-.54-.26-.92-.83-.92-1.48v-.12l-16.24,10.44c.17.35.34.69.54,1.02,1.81,2.1,4.5,3.43,7.48,3.43h29.55c5.45,0,9.86-4.41,9.86-9.86v-19.64c0-1.66-.42-3.27-1.2-4.69Z"/>
      <path class="cls-1" d="M57.71,0C25.84,0,0,25.84,0,57.71s25.84,57.71,57.71,57.71c11.09,0,21.44-3.13,30.23-8.55l-11.99-11.13c-5.52,2.65-11.71,4.14-18.25,4.14-23.3,0-42.17-18.88-42.17-42.17S34.42,15.54,57.71,15.54s42.17,18.88,42.17,42.17c0,9.8-3.33,18.81-8.93,25.96l11.42,10.6c8.16-9.96,13.05-22.69,13.05-36.56C115.42,25.84,89.59,0,57.71,0Z"/>
      <path class="cls-4" d="M125.99,120.58c0,2.32-.84,4.64-2.54,6.47-3.58,3.86-9.61,4.08-13.47.51l-18.7-17.36c5.48-3.37,10.37-7.65,14.43-12.61l17.24,15.99c2.03,1.88,3.05,4.43,3.05,6.99Z"/>
    </g>
  </g>
</svg>