<svg width="12" height="12" viewBox="0 0 12 12" fill="none" xmlns="http://www.w3.org/2000/svg"><path fill-rule="evenodd" clip-rule="evenodd" d="M11.7234 4.47269C11.7716 4.55435 11.8072 4.64277 11.8292 4.735C11.8413 4.792 11.8469 4.85019 11.8461 4.90846V10.6538C11.8436 10.7105 11.838 10.767 11.8292 10.8231C11.8011 10.9552 11.7416 11.0785 11.6557 11.1827C11.622 11.2249 11.5837 11.2632 11.5415 11.2969C11.3924 11.4295 11.1994 11.5018 10.9999 11.5H3.38454C3.27113 11.4996 3.15894 11.4766 3.05454 11.4323C2.9538 11.3913 2.86294 11.3292 2.788 11.2504C2.66892 11.1348 2.58778 10.9858 2.55531 10.8231C2.54319 10.7675 2.53752 10.7107 2.53839 10.6538V7.69231H2.96146C3.66157 7.69022 4.2286 7.12319 4.23069 6.42308C4.23278 5.72297 4.79982 5.15594 5.49992 5.15385C6.2009 5.15385 6.76916 4.58559 6.76916 3.88462C6.76916 3.18364 6.2009 2.61538 5.49992 2.61538C5.25546 2.61434 5.01632 2.54392 4.81031 2.41231L6.61262 0.728461C6.939 0.423873 7.44546 0.423873 7.77185 0.728461L8.068 1.00769L11.5795 4.29077C11.6353 4.3448 11.6837 4.40597 11.7234 4.47269ZM5.49992 10.6538H8.88454V7.26923C8.88315 6.80249 8.50513 6.42447 8.03839 6.42308H6.34608C5.87934 6.42447 5.50132 6.80249 5.49992 7.26923V10.6538Z" fill="white"></path><path d="M2.96154 6.84615C3.1952 6.84615 3.38462 6.65674 3.38462 6.42308C3.38462 5.25478 4.33171 4.30769 5.5 4.30769C5.73366 4.30769 5.92308 4.11827 5.92308 3.88462C5.92308 3.65096 5.73366 3.46154 5.5 3.46154C4.33267 3.45921 3.38694 2.51348 3.38462 1.34615C3.38462 1.1125 3.1952 0.923077 2.96154 0.923077C2.72788 0.923077 2.53846 1.1125 2.53846 1.34615C2.53846 2.51445 1.59137 3.46154 0.423077 3.46154C0.189418 3.46154 0 3.65096 0 3.88462C0 4.11827 0.189418 4.30769 0.423077 4.30769C1.59137 4.30769 2.53846 5.25478 2.53846 6.42308C2.53846 6.65674 2.72788 6.84615 2.96154 6.84615Z" fill="white"></path></svg>