<svg xmlns="http://www.w3.org/2000/svg" xmlns:xlink="http://www.w3.org/1999/xlink" xmlns:v="https://vecta.io/nano"
    width="319.443" height="269">
    <style>
        <![CDATA[
        .B {
            fill: #fff
        }

        .C {
            fill: #d0d3e2
        }

        .D {
            fill: #fb3652
        }

        .E {
            fill: #8e8e8e
        }

        .F {
            fill: none
        }

        .G {
            stroke-linejoin: round
        }

        .H {
            stroke-miterlimit: 10
        }

        .I {
            stroke: #fff
        }

        .J {
            fill: #f8f8f8
        }

        .K {
            fill: #b5d6ea
        }

        .L {
            stroke-width: .8
        }

        .M {
            stroke: #8e8e8e
        }

        .N {
            stroke: #fb3652
        }

        .O {
            fill: #424242
        }

        .P {
            fill: #acafbc
        }

        .Q {
            stroke-width: .5
        }

        .R {
            fill: #265173
        }

        .S {
            stroke-linecap: round
        }

        .T {
            fill: #eaad8c
        }

        .U {
            fill: #d89273
        }

        .V {
            fill: #f4bd9a
        }

        .W {
            fill: #d39572
        }

        .X {
            fill: rgba(255, 255, 255, 0)
        }

        .Y {
            fill-rule: evenodd
        }
        ]]>
    </style>
    <defs>
        <clipPath id="A">
            <path d="M0 0h222v99H0z" />
        </clipPath>
        <clipPath id="B">
            <path transform="translate(0 .001)" d="M0 0h24v24H0z" class="B" />
        </clipPath>
        <path id="C"
            d="M30.198 38.654v-5h4v5a1 1 0 0 0 1 1h3a1 1 0 0 0 1-1v-7h1.7a.5.5 0 0 0 .33-.87l-8.36-7.53a1.01 1.01 0 0 0-1.34 0l-8.36 7.53a.5.5 0 0 0 .33.87h1.7v7a1 1 0 0 0 1 1h3a1 1 0 0 0 1-1z" />
        <path id="D"
            d="M110.119 23.816l-2.871 2.362-2.563 2.091a2.79 2.79 0 0 0-.89 2.053v8.266h8.406v-1.672s1.343-.97 1.525-1.832" />
        <path id="E"
            d="M105.769 31.553l4.557-4.476c.929-.929 1.988 1.343 1.105 2.653-.4.548-2.012 2.358-2.012 2.358.516 1.207.345 2.597-.45 3.642" />
        <path id="F"
            d="M.258.274,4.61,0c.134-.008.235.141.227.333S4.713.688,4.58.7L.227.97C.094.979-.008.83,0,.637S.124.283.258.274Z" />
        <path id="G"
            d="M4.621,0c.128,0,.224.146.216.333S4.713.688,4.58.7L.227.97C.094.979-.008.83,0,.637S.124.283.258.274L4.61,0Z" />
        <path id="H"
            d="M.258.7,4.611.97c.134.008.235-.141.227-.333S4.714.283,4.58.274L.227,0C.094-.008-.008.141,0,.333S.124.688.258.7Z" />
        <path id="I"
            d="M4.621.97h-.01L.258.7C.124.688.009.525 0 .333S.094-.008.227 0L4.58.274c.134.008.249.171.257.363S4.75.97 4.621.97z" />
        <path id="J"
            d="M149.058 37.597c-.133.001-.257-.067-.328-.179h0c-.121-.201-.339-.323-.574-.322-.185 0-.362.075-.489.209h0c-.073.073-.171.113-.274.113-.195.002-.362-.14-.391-.333h0a.68.68 0 0 0-.662-.589c-.085 0-.169.017-.247.051h0c-.047.02-.098.03-.149.03a.38.38 0 0 1-.3-.146.4.4 0 0 1-.076-.344v-.01a.67.67 0 0 0-.1-.58.68.68 0 0 0-.519-.289c-.148-.002-.282-.091-.34-.227-.064-.139-.038-.303.064-.417.136-.157.19-.369.147-.572s-.178-.375-.365-.465h0c-.134-.064-.22-.199-.22-.347s.085-.283.22-.347h.006c.187-.085.323-.253.368-.453a.67.67 0 0 0-.142-.585h0c-.093-.115-.113-.273-.052-.408s.193-.224.34-.23h.007c.21-.005.406-.109.528-.28.121-.165.158-.378.1-.574a.38.38 0 0 1 .057-.341c.106-.145.297-.198.463-.129a.67.67 0 0 0 .926-.527c.022-.148.128-.269.271-.312s.298.001.398.112c.125.136.302.213.487.212.233 0 .45-.12.574-.317a.39.39 0 0 1 .694.077c.098.27.354.451.642.452a.66.66 0 0 0 .363-.109h0a.4.4 0 0 1 .213-.062.39.39 0 0 1 .283.123.38.38 0 0 1 .1.291.66.66 0 0 0 .177.507c.156.17.386.25.614.214.021-.001.042-.001.063 0 .14-.001.269.074.338.195a.38.38 0 0 1 0 .383c-.101.181-.112.398-.029.588s.249.33.45.379a.38.38 0 0 1 .29.3.37.37 0 0 1-.146.376.65.65 0 0 0-.264.516c-.004.211.09.413.256.544.117.091.17.241.138.385s-.145.257-.289.289c-.205.047-.377.187-.464.379s-.08.407.018.59h0c.062.122.055.267-.016.383s-.199.187-.336.186a.36.36 0 0 1-.063 0h0c-.231-.043-.468.035-.628.207-.125.135-.188.316-.173.5.008.101-.024.201-.091.277l.145.1h-.277a.39.39 0 0 1-.166.037c-.076 0-.15-.023-.212-.067l-.1-.068c-.169-.07-.359-.069-.527.004s-.299.211-.362.382c-.061.149-.208.244-.369.238zm-.049-.355c.011.016.029.026.049.025s.043-.011.052-.032h0a1 1 0 0 1 1.515-.478l.009.006a.07.07 0 0 0 .033-.019c.01-.01.014-.023.013-.037a.98.98 0 0 1 .26-.75 1.02 1.02 0 0 1 .743-.324c.062 0 .124.006.185.017h.011c.023 0 .043-.012.055-.031s.011-.041 0-.059c-.144-.276-.152-.603-.022-.885s.383-.489.686-.56c.02-.002.037-.017.042-.037s-.003-.044-.021-.057a1 1 0 0 1-.38-.808.98.98 0 0 1 .4-.776h0c.013-.011.018-.028.013-.044-.003-.022-.02-.039-.041-.043h0c-.302-.073-.552-.284-.676-.568s-.108-.611.044-.882h0c.01-.017.01-.037 0-.054s-.031-.029-.052-.028h-.012c-.053.008-.106.013-.16.013a1.02 1.02 0 0 1-.748-.329.99.99 0 0 1-.264-.756c.003-.015-.002-.03-.012-.041s-.025-.017-.04-.017a.06.06 0 0 0-.034.01c-.161.106-.35.163-.543.163a1.02 1.02 0 0 1-.953-.672h0c-.009-.021-.029-.034-.052-.033s-.039.009-.05.026c-.184.293-.507.471-.853.47-.277.001-.542-.115-.73-.319h0c-.01-.013-.026-.02-.042-.02-.028 0-.052.021-.056.049a1 1 0 0 1-.991.86c-.133 0-.265-.027-.388-.078-.007-.004-.015-.005-.023-.005-.019 0-.036.01-.047.025s-.013.033-.007.05c.088.295.033.615-.149.864a1 1 0 0 1-.783.416c-.026 0-.049.015-.06.038a.06.06 0 0 0 .009.062 1 1 0 0 1 .21.868.98.98 0 0 1-.55.679c-.02.008-.034.028-.034.05s.013.042.034.05a1 1 0 0 1 .322 1.55h0c-.016.017-.02.042-.01.063s.024.03.043.03h.009a1.01 1.01 0 0 1 .92 1.287c-.005.021 0 .044.013.061s.024.02.04.021c.007.001.014.001.021 0 .119-.051.247-.077.376-.077a1 1 0 0 1 .99.874c.006.03.033.052.064.051.015 0 .029-.006.039-.016a1 1 0 0 1 1.58.171z" />
        <path id="K"
            d="M148.627 30.28c1.615 0 2.925 1.31 2.925 2.925s-1.31 2.925-2.925 2.925-2.925-1.31-2.925-2.925c0-.776.308-1.52.857-2.068s1.293-.857 2.068-.857zm0 5.519c1.433 0 2.594-1.161 2.594-2.594s-1.161-2.594-2.594-2.594-2.594 1.161-2.594 2.594c0 .688.273 1.348.76 1.834s1.146.76 1.834.76z" />
        <path id="L"
            d="M67.844 41.25c-.168 0-.314-.115-.355-.278l-.652-1.651-.1-.253-.111-.277c-.052-.137-.077-.2-.147-.2a.66.66 0 0 0-.186.051l-2.02.732a.3.3 0 0 1-.155.044c-.026 0-.052-.004-.077-.011-.079-.02-.146-.074-.183-.146l-1.916-2.3c-.152-.182-.157-.25-.037-.456l1.2-2.072c.1-.165.1-.2-.07-.3l-1.833-1.152c-.207-.134-.232-.195-.182-.434q.28-1.3.56-2.584l.076-.347a.3.3 0 0 1 .289-.263l2.425-.334h.022c.054 0 .105-.024.139-.066.038-.048.049-.112.028-.169l-.126-1.2-.016-.157q-.044-.427-.089-.853c-.034-.149.045-.301.187-.359l1.7-.818.12-.058.9-.434c.061-.035.13-.056.2-.062.087 0 .157.053.25.145l.625.609 1.092 1.068a.18.18 0 0 0 .151.082c.061 0 .118-.031.152-.082l.86-.83.138-.133.588-.567c.064-.07.154-.11.249-.11.059 0 .116.015.167.045l2.726 1.341a.29.29 0 0 1 .2.254q-.048.422-.092.836l-.011.1-.129 1.164v.018c-.017.142-.025.213.008.254s.108.048.261.06l1.664.117c.375.024.4.043.5.4l.8 2.8c.048.192.016.271-.167.4l-.457.329-.077.055-1.416 1.014c-.058.023-.1.073-.114.133s.007.125.051.169l.833 1.237.386.577c.134.192.134.262 0 .443l-1.734 2.366c-.125.172-.186.229-.3.229-.083-.005-.165-.022-.243-.049l-1.255-.373h-.011l-.04-.012-.946-.28c-.025-.014-.054-.022-.083-.022s-.056.007-.081.021c-.052.028-.084.082-.086.141l-.545 1.75-.13.414c-.079.253-.129.291-.385.291h-2.961zm1.483-12.2c-2.18.003-3.946 1.77-3.948 3.95s1.768 3.946 3.948 3.949 3.949-1.768 3.952-3.949c-.003-2.181-1.771-3.948-3.952-3.95z" />
        <path id="M"
            d="M71.951 32.686l-2.4-2.187c-.089-.103-.238-.13-.357-.065-.03.017-.058.038-.083.062l-1.036.944v-.39a.2.2 0 0 0-.2-.2h-.555a.2.2 0 0 0-.2.2v1.261l-.458.417a.29.29 0 0 0-.1.359.26.26 0 0 0 .223.161c.119.008.24 0 .359.006h.076v2.244c0 .148.056.2.2.2h1.3c.143 0 .2-.059.2-.2v-1.339h.807v1.349c0 .137.059.2.194.2h1.314c.053.009.108-.009.146-.047s.056-.093.047-.146v-2.256h.37c.077.009.154-.017.211-.069.04-.052.076-.108.106-.167v-.109c-.033-.089-.09-.168-.164-.228z" />
        <path id="N"
            d="M121.444 117.195h5.772c.472.007.938-.104 1.356-.322.403-.214.755-.511 1.034-.872.295-.384.523-.815.672-1.276a4.7 4.7 0 0 0 .241-1.5 4.08 4.08 0 0 0-.282-1.516c-.179-.459-.433-.885-.751-1.262a3.4 3.4 0 0 0-1.1-.859 2.99 2.99 0 0 0-1.329-.309h-5.611v7.92zm-2.416 8.993v-19.06h8.161a5.16 5.16 0 0 1 2.322.524 5.85 5.85 0 0 1 1.826 1.4 6.68 6.68 0 0 1 1.195 1.96 5.99 5.99 0 0 1 .429 2.215 6.55 6.55 0 0 1-.282 1.919c-.178.598-.45 1.164-.805 1.678a5.39 5.39 0 0 1-1.262 1.289 4.91 4.91 0 0 1-1.651.778l4.618 7.3h-2.738l-4.349-6.846h-5.047v6.846h-2.416z" />
        <path id="O"
            d="M211.894 256c-.001 6.856-5.559 12.413-12.415 12.413s-12.414-5.558-12.413-12.414 5.558-12.414 12.414-12.414c6.848.02 12.394 5.567 12.414 12.415" />
        <path id="P"
            d="M72.687 257.014c-.002 1.804-1.278 3.356-3.048 3.707s-3.541-.598-4.231-2.265-.106-3.59 1.395-4.592 3.5-.805 4.776.471c.71.71 1.109 1.674 1.108 2.679z" />
    </defs>
    <g clip-path="url(#A)">
        <use xlink:href="#C" class="E" />
        <g class="H L M">
            <use xlink:href="#D" class="J" />
            <path d="M102.857 38.709h10.208v2.722h-10.208z" class="E" />
            <path d="M104.194 40.19h1.2" class="F" />
            <path
                d="M110.119 31.295v3.05a.68.68 0 0 0 .681.681h8.527a.8.8 0 0 0 .8-.8V21.695a.68.68 0 0 0-.68-.681H110.8a.68.68 0 0 0-.681.681v5.519"
                class="E" />
        </g>
        <g class="F H L">
            <g class="I">
                <path d="M115.724 21.014h2.402v14.012h-2.402zm-1.602 1.201v1.6" />
            </g>
            <g class="M">
                <path d="M114.122 24.617v1.6" />
            </g>
        </g>
        <use xlink:href="#E" class="H J L M" />
        <path d="M137.2 20h22.207v22.207H137.2z" class="X" />
        <g class="E">
            <path
                d="M144.759 25.103l-6.277 1.034h-.082a.4.4 0 0 0-.4.4v10.866a.4.4 0 0 0 .4.4h6.3a.4.4 0 0 0 .4-.4v-11.9a.4.4 0 0 0-.341-.4m-.059-1a1.4 1.4 0 0 1 1.4 1.4v11.9a1.4 1.4 0 0 1-1.4 1.4h-6.3a1.4 1.4 0 0 1-1.4-1.4V26.537a1.4 1.4 0 0 1 1.4-1.4zm6.946 1a.4.4 0 0 0-.343.4v11.9a.4.4 0 0 0 .4.4h6.3a.4.4 0 0 0 .4-.4V26.537a.4.4 0 0 0-.4-.4h-.08l-6.277-1.034m.057-1l6.3 1.034a1.4 1.4 0 0 1 1.4 1.4v10.866a1.4 1.4 0 0 1-1.4 1.4h-6.3a1.4 1.4 0 0 1-1.4-1.4v-11.9a1.4 1.4 0 0 1 1.4-1.4z" />
        </g>
        <g transform="matrix(.990268 -.139173 .139173 .990268 138.738 28.401)">
            <use xlink:href="#F" class="C" />
            <use xlink:href="#G" class="E" />
        </g>
        <g transform="matrix(-.990268 -.139173 .139173 -.990268 157.532 29.362)">
            <use xlink:href="#H" class="C" />
            <use xlink:href="#I" class="E" />
        </g>
        <g transform="matrix(.990268 -.139173 .139173 .990268 138.738 31.069)">
            <use xlink:href="#F" class="C" />
            <use xlink:href="#G" class="E" />
        </g>
        <g transform="matrix(-.990268 -.139173 .139173 -.990268 157.532 32.029)">
            <use xlink:href="#H" class="C" />
            <use xlink:href="#I" class="E" />
        </g>
        <g transform="matrix(.990268 -.139173 .139173 .990268 138.738 33.519)">
            <use xlink:href="#F" class="C" />
            <use xlink:href="#G" class="E" />
        </g>
        <g transform="matrix(-.990268 -.139173 .139173 -.990268 157.532 34.479)">
            <use xlink:href="#H" class="C" />
            <use xlink:href="#I" class="E" />
        </g>
        <g class="E M">
            <rect width="13.969" height="17.461" rx="2" stroke="none" x="141.218" y="22.374" />
            <rect x="141.718" y="22.874" width="12.969" height="16.461" rx="1.5" class="F" />
        </g>
        <g class="B">
            <rect width="8.73" height="1.746" rx=".873" x="144.011" y="25.866" />
            <use xlink:href="#J" />
            <use xlink:href="#K" />
            <path d="M148.444 34.236l-.929-.912.231-.236.664.652 1.266-1.632.261.2z" stroke="#f8f8f8" class="Q" />
        </g>
        <g class="E">
            <path
                d="M182.537 32.575a.79.79 0 0 1-.706-1.19.79.79 0 0 1 .706-.385h8.925a.79.79 0 0 1 .706 1.19.79.79 0 0 1-.706.385zm0 4.725a.79.79 0 0 1-.706-1.19.79.79 0 0 1 .706-.385h5.749a.79.79 0 0 1 .706 1.19.79.79 0 0 1-.706.385zm-3.412 4.2c-.861-.021-1.554-.714-1.575-1.575V23.65c.021-.861.714-1.554 1.575-1.575h1.706v-.735a.81.81 0 0 1 .249-.591.84.84 0 0 1 .617-.249.85.85 0 0 1 .84.84v.735h8.925v-.735a.81.81 0 0 1 .249-.591.84.84 0 0 1 .618-.249.85.85 0 0 1 .84.84v.735h1.706c.861.021 1.554.714 1.575 1.575v16.275c-.021.861-.714 1.554-1.575 1.575zm0-1.575h15.75V28.637h-15.75zm-99.833.786h-.8V30.157a1.02 1.02 0 0 1 .586-.916 4.08 4.08 0 0 0 2.45-3.742c-.002-1.461-.717-2.829-1.915-3.665-.06-.041-.137-.044-.2-.01a.21.21 0 0 0-.12.189v2.886a1.01 1.01 0 0 1-1.008 1h-2.429a1.01 1.01 0 0 1-1.007-1v-2.886a.21.21 0 0 0-.117-.189c-.065-.036-.145-.032-.205.011-1.198.836-1.912 2.204-1.914 3.664a4.08 4.08 0 0 0 2.45 3.742 1.02 1.02 0 0 1 .586.916v10.554h-.8V30.157c-.003-.087-.056-.165-.136-.2-1.767-.777-2.906-2.528-2.9-4.458a5.28 5.28 0 0 1 2.256-4.321 1 1 0 0 1 1.033-.064 1.01 1.01 0 0 1 .546.9v2.885c0 .114.093.207.207.208h2.43c.114-.001.207-.094.207-.208v-2.886a1.01 1.01 0 0 1 .546-.9 1 1 0 0 1 1.033.064c1.413.986 2.255 2.599 2.257 4.322.006 1.93-1.133 3.681-2.9 4.458-.08.035-.133.113-.135.2z" />
            <use xlink:href="#L" />
            <use xlink:href="#M" />
        </g>
        <path
            d="M30.198 71.654v-5h4v5a1 1 0 0 0 1 1h3a1 1 0 0 0 1-1v-7h1.7a.5.5 0 0 0 .33-.87l-8.36-7.53a1.01 1.01 0 0 0-1.34 0l-8.36 7.53a.5.5 0 0 0 .33.87h1.7v7a1 1 0 0 0 1 1h3a1 1 0 0 0 1-1z"
            class="D" />
        <g class="H L">
            <g class="N">
                <path
                    d="M110.119 57.816l-2.871 2.362-2.563 2.091a2.79 2.79 0 0 0-.89 2.053v8.266h8.406v-1.672s1.343-.97 1.525-1.832"
                    class="J" />
                <path d="M102.857 72.709h10.208v2.722h-10.208z" class="D" />
                <path d="M104.194 74.19h1.2" class="F" />
                <path
                    d="M110.119 65.295v3.05a.68.68 0 0 0 .681.681h8.527a.8.8 0 0 0 .8-.8V55.695a.68.68 0 0 0-.68-.681H110.8a.68.68 0 0 0-.681.681v5.519"
                    class="D" />
            </g>
            <g class="F">
                <g class="I">
                    <path d="M115.724 55.014h2.402v14.012h-2.402zm-1.602 1.201v1.6" />
                </g>
                <g class="N">
                    <path d="M114.122 58.617v1.6" />
                </g>
            </g>
            <path
                d="M105.769 65.553l4.557-4.476c.929-.929 1.988 1.343 1.105 2.653-.4.548-2.012 2.358-2.012 2.358.516 1.207.345 2.597-.45 3.642"
                class="J N" />
        </g>
        <path d="M137.2 53h22.207v22.207H137.2z" class="X" />
        <g class="D">
            <path
                d="M144.759 58.103l-6.277 1.034h-.082a.4.4 0 0 0-.4.4v10.866a.4.4 0 0 0 .4.4h6.3a.4.4 0 0 0 .4-.4v-11.9a.4.4 0 0 0-.341-.4m-.059-1a1.4 1.4 0 0 1 1.4 1.4v11.9a1.4 1.4 0 0 1-1.4 1.4h-6.3a1.4 1.4 0 0 1-1.4-1.4V59.537a1.4 1.4 0 0 1 1.4-1.4zm6.946 1a.4.4 0 0 0-.343.4v11.9a.4.4 0 0 0 .4.4h6.3a.4.4 0 0 0 .4-.4V59.537a.4.4 0 0 0-.4-.4h-.08l-6.277-1.034m.057-1l6.3 1.034a1.4 1.4 0 0 1 1.4 1.4v10.866a1.4 1.4 0 0 1-1.4 1.4h-6.3a1.4 1.4 0 0 1-1.4-1.4v-11.9a1.4 1.4 0 0 1 1.4-1.4z" />
        </g>
        <g transform="matrix(.990268 -.139173 .139173 .990268 138.738 61.401)">
            <use xlink:href="#F" class="C" />
            <use xlink:href="#G" class="D" />
        </g>
        <g transform="matrix(-.990268 -.139173 .139173 -.990268 157.532 62.362)">
            <use xlink:href="#H" class="C" />
            <use xlink:href="#I" class="D" />
        </g>
        <g transform="matrix(.990268 -.139173 .139173 .990268 138.738 64.069)">
            <use xlink:href="#F" class="C" />
            <use xlink:href="#G" class="D" />
        </g>
        <g transform="matrix(-.990268 -.139173 .139173 -.990268 157.532 65.029)">
            <use xlink:href="#H" class="C" />
            <use xlink:href="#I" class="D" />
        </g>
        <g transform="matrix(.990268 -.139173 .139173 .990268 138.738 66.519)">
            <use xlink:href="#F" class="C" />
            <use xlink:href="#G" class="D" />
        </g>
        <g transform="matrix(-.990268 -.139173 .139173 -.990268 157.532 67.479)">
            <use xlink:href="#H" class="C" />
            <use xlink:href="#I" class="D" />
        </g>
        <g class="D N">
            <rect width="13.969" height="17.461" rx="2" stroke="none" x="141.218" y="55.374" />
            <rect x="141.718" y="55.874" width="12.969" height="16.461" rx="1.5" class="F" />
        </g>
        <g class="B">
            <rect width="8.73" height="1.746" rx=".873" x="144.011" y="58.866" />
            <path
                d="M149.058 70.597c-.133.001-.257-.067-.328-.179h0c-.121-.201-.339-.323-.574-.322-.185 0-.362.075-.489.209h0c-.073.073-.171.113-.274.113a.39.39 0 0 1-.391-.333h0a.68.68 0 0 0-.662-.589c-.085 0-.169.017-.247.051h0a.38.38 0 0 1-.449-.116.4.4 0 0 1-.076-.344v-.01a.67.67 0 0 0-.1-.58.68.68 0 0 0-.519-.289c-.148-.002-.282-.091-.34-.227-.064-.139-.038-.303.064-.417.136-.157.19-.369.147-.572a.67.67 0 0 0-.365-.465h0c-.134-.064-.22-.199-.22-.347s.085-.283.22-.347h.006c.187-.085.323-.253.368-.453a.67.67 0 0 0-.142-.585h0c-.093-.115-.113-.273-.052-.408a.39.39 0 0 1 .34-.23h.007a.67.67 0 0 0 .528-.28c.121-.165.158-.378.1-.574a.38.38 0 0 1 .057-.341.39.39 0 0 1 .463-.129.67.67 0 0 0 .926-.527c.022-.148.128-.269.271-.312s.298.001.398.112c.125.136.302.213.487.212a.68.68 0 0 0 .574-.317.39.39 0 0 1 .694.077c.098.27.354.451.642.452a.66.66 0 0 0 .363-.109h0a.4.4 0 0 1 .213-.062.39.39 0 0 1 .283.123.38.38 0 0 1 .1.291.66.66 0 0 0 .177.507c.156.17.386.25.614.214h.063c.14-.001.269.074.338.195a.38.38 0 0 1 0 .383.66.66 0 0 0 .421.967.38.38 0 0 1 .29.3.37.37 0 0 1-.146.376.65.65 0 0 0-.264.516c-.004.211.09.413.256.544.117.091.17.241.138.385a.38.38 0 0 1-.289.289c-.205.047-.377.187-.464.379a.66.66 0 0 0 .018.59h0c.062.122.055.267-.016.383a.39.39 0 0 1-.336.186.36.36 0 0 1-.063 0h0c-.231-.043-.468.035-.628.207-.125.135-.188.316-.173.5.008.101-.024.201-.091.277l.145.1h-.277a.39.39 0 0 1-.166.037c-.076 0-.15-.023-.212-.067l-.1-.068c-.169-.07-.359-.069-.527.004a.67.67 0 0 0-.362.382c-.061.149-.208.244-.369.238zm-.049-.355c.011.016.029.026.049.025s.043-.011.052-.032h0a1 1 0 0 1 1.515-.478l.009.006a.07.07 0 0 0 .033-.019c.01-.01.014-.023.013-.037a.98.98 0 0 1 .26-.75 1.02 1.02 0 0 1 .743-.324c.062 0 .124.006.185.017h.011c.023 0 .043-.012.055-.031s.011-.041 0-.059c-.144-.276-.152-.603-.022-.885a1.01 1.01 0 0 1 .686-.56c.02-.002.037-.017.042-.037s-.003-.044-.021-.057a1 1 0 0 1-.38-.808.98.98 0 0 1 .4-.776h0c.013-.011.018-.028.013-.044-.003-.022-.02-.039-.041-.043h0c-.302-.073-.552-.284-.676-.568s-.108-.611.044-.882h0c.01-.017.01-.037 0-.054s-.031-.029-.052-.028h-.012a1.07 1.07 0 0 1-.16.013 1.02 1.02 0 0 1-.748-.329.99.99 0 0 1-.264-.756c.003-.015-.002-.03-.012-.041s-.025-.017-.04-.017a.06.06 0 0 0-.034.01.99.99 0 0 1-.543.163 1.02 1.02 0 0 1-.953-.672h0c-.009-.021-.029-.034-.052-.033s-.039.009-.05.026c-.184.293-.507.471-.853.47a.99.99 0 0 1-.73-.319h0c-.01-.013-.026-.02-.042-.02-.028 0-.052.021-.056.049a1 1 0 0 1-.991.86c-.133 0-.265-.027-.388-.078-.007-.004-.015-.005-.023-.005-.019 0-.036.01-.047.025s-.013.033-.007.05c.088.295.033.615-.149.864a1 1 0 0 1-.783.416c-.026 0-.049.015-.06.038a.06.06 0 0 0 .009.062 1 1 0 0 1 .21.868.98.98 0 0 1-.55.679c-.02.008-.034.028-.034.05s.013.042.034.05a1 1 0 0 1 .322 1.55h0c-.016.017-.02.042-.01.063s.024.03.043.03h.009a1.01 1.01 0 0 1 .92 1.287c-.005.021 0 .044.013.061s.024.02.04.021c.007.001.014.001.021 0 .119-.051.247-.077.376-.077a1 1 0 0 1 .99.874c.006.03.033.052.064.051.015 0 .029-.006.039-.016a1 1 0 0 1 1.58.171zm-.382-6.962c1.615 0 2.925 1.31 2.925 2.925s-1.31 2.925-2.925 2.925-2.925-1.31-2.925-2.925a2.92 2.92 0 0 1 .857-2.068 2.93 2.93 0 0 1 2.068-.857zm0 5.519c1.433 0 2.594-1.161 2.594-2.594s-1.161-2.594-2.594-2.594-2.594 1.161-2.594 2.594a2.59 2.59 0 0 0 .76 1.834c.487.486 1.146.76 1.834.76z" />
            <path d="M148.444 67.236l-.929-.912.231-.236.664.652 1.266-1.632.261.2z" stroke="#f8f8f8" class="Q" />
        </g>
        <path
            d="M182.987 65.075a.79.79 0 0 1-.706-1.19.79.79 0 0 1 .706-.385h8.925a.79.79 0 0 1 .706 1.19.79.79 0 0 1-.706.385zm0 4.725a.79.79 0 0 1-.706-1.19.79.79 0 0 1 .706-.385h5.749a.79.79 0 0 1 .706 1.19.79.79 0 0 1-.706.385zm-3.412 4.2c-.861-.021-1.554-.714-1.575-1.575V56.15c.021-.861.714-1.554 1.575-1.575h1.706v-.735c-.002-.223.088-.437.249-.591a.84.84 0 0 1 .617-.249.85.85 0 0 1 .84.84v.735h8.925v-.735c-.002-.223.088-.437.249-.591a.84.84 0 0 1 .618-.249.85.85 0 0 1 .84.84v.735h1.706c.861.021 1.554.714 1.575 1.575v16.275c-.021.861-.714 1.554-1.575 1.575zm0-1.575h15.75V61.137h-15.75z"
            class="D" />
        <g fill="#fb3551">
            <path
                d="M79.292 71.711h-.8V61.157a1.02 1.02 0 0 1 .586-.916 4.08 4.08 0 0 0 2.45-3.742c-.002-1.461-.717-2.829-1.915-3.665-.06-.041-.137-.044-.2-.01a.21.21 0 0 0-.12.189v2.886a1.01 1.01 0 0 1-1.008 1h-2.429a1.01 1.01 0 0 1-1.007-1v-2.886a.21.21 0 0 0-.117-.189c-.065-.036-.145-.032-.205.011-1.198.836-1.912 2.204-1.914 3.664a4.08 4.08 0 0 0 2.45 3.742 1.02 1.02 0 0 1 .586.916v10.554h-.8V61.157c-.003-.087-.056-.165-.136-.2-1.767-.777-2.906-2.528-2.9-4.458.002-1.722.844-3.335 2.256-4.321a1 1 0 0 1 1.033-.064 1.01 1.01 0 0 1 .546.9v2.885c0 .114.093.207.207.208h2.43c.114-.001.207-.094.207-.208v-2.886a1.01 1.01 0 0 1 .546-.9 1 1 0 0 1 1.033.064c1.413.986 2.255 2.599 2.257 4.322.006 1.93-1.133 3.681-2.9 4.458-.08.035-.133.113-.135.2z" />
            <path
                d="M67.844 72.25c-.168 0-.314-.115-.355-.278l-.652-1.651-.1-.253-.111-.277c-.052-.137-.077-.2-.147-.2a.66.66 0 0 0-.186.051l-2.02.732a.3.3 0 0 1-.155.044c-.026 0-.052-.004-.077-.011-.079-.02-.146-.074-.183-.146l-1.916-2.3c-.152-.182-.157-.25-.037-.456l1.2-2.072c.1-.165.1-.2-.07-.3l-1.833-1.152c-.207-.134-.232-.195-.182-.434q.28-1.3.56-2.584l.076-.347a.3.3 0 0 1 .289-.263l2.425-.334h.022c.054 0 .105-.024.139-.066.038-.048.049-.112.028-.169l-.126-1.2-.016-.157q-.044-.427-.089-.853c-.034-.149.045-.301.187-.359l1.7-.818.12-.058.9-.434c.061-.035.13-.056.2-.062.087 0 .157.053.25.145l.625.609 1.092 1.068a.18.18 0 0 0 .151.082c.061 0 .118-.031.152-.082l.86-.83.138-.133.588-.567c.064-.07.154-.11.249-.11.059 0 .116.015.167.045l2.726 1.341a.29.29 0 0 1 .2.254q-.048.422-.092.836l-.011.1-.129 1.164v.018c-.017.142-.025.213.008.254s.108.048.261.06l1.664.117c.375.024.4.043.5.4l.8 2.8c.048.192.016.271-.167.4l-.457.329-.077.055-1.416 1.014c-.058.023-.1.073-.114.133s.007.125.051.169l.833 1.237.386.577c.134.192.134.262 0 .443l-1.734 2.366c-.125.172-.186.229-.3.229a.91.91 0 0 1-.243-.049l-1.255-.373h-.011l-.04-.012-.946-.28c-.025-.014-.054-.022-.083-.022s-.056.007-.081.021c-.052.028-.084.082-.086.141l-.545 1.75-.13.414c-.079.253-.129.291-.385.291h-2.961zm1.483-12.2c-2.18.003-3.946 1.77-3.948 3.95a3.95 3.95 0 0 0 3.948 3.949c2.18.003 3.949-1.768 3.952-3.949-.003-2.181-1.771-3.948-3.952-3.95zm2.624 3.636l-2.4-2.187a.29.29 0 0 0-.357-.065c-.03.017-.058.038-.083.062l-1.036.944v-.39a.2.2 0 0 0-.2-.2h-.555a.2.2 0 0 0-.2.2v1.261l-.458.417a.29.29 0 0 0-.1.359.26.26 0 0 0 .223.161c.119.008.24 0 .359.006h.076v2.244c0 .148.056.2.2.2h1.3c.143 0 .2-.059.2-.2v-1.339h.807v1.349c0 .137.059.2.194.2h1.314c.053.009.108-.009.146-.047s.056-.093.047-.146v-2.256h.37c.077.009.154-.017.211-.069a1.07 1.07 0 0 0 .106-.167v-.109c-.033-.089-.09-.168-.164-.228z" />
        </g>
    </g>
    <path
        d="M51.306 184.28l9.375-.112 9.375-.063 18.755-.055 18.755.052 9.375.063 9.375.112-9.375.112-9.375.063-18.76.051-18.755-.052-9.375-.063-9.37-.108zm0 4.6l9.375-.112 9.375-.063 18.755-.053 18.755.052 9.375.062 9.375.112-9.375.112-9.375.063-18.76.052-18.755-.053-9.375-.063-9.37-.109zm0 4.585l9.375-.112 9.375-.063 18.755-.052 18.755.052 9.375.063 9.375.112-9.375.112-9.375.063-18.76.052-18.755-.052-9.375-.063zm0 4.592l9.375-.112 9.375-.062 18.755-.053 18.755.052 9.375.063 9.375.112-9.375.112-9.375.063-18.76.052-18.755-.053-9.375-.062-9.37-.112zm0 4.592l9.375-.112 9.375-.063 18.755-.052 18.755.052 9.375.063 9.375.112-9.375.111-9.375.063-18.755.052-18.755-.055-9.375-.063-9.375-.111zm0 4.591l9.375-.112 9.375-.062 18.755-.056 18.755.053 9.375.063 9.375.112-9.375.112-9.375.063-18.755.052-18.755-.053-9.375-.063-9.375-.109zm0 4.6l9.375-.112 9.375-.062 18.755-.066 18.755.052 9.375.063 9.375.111-9.375.111-9.375.064-18.755.052L70.056 212l-9.375-.063-9.375-.11zm0 4.59l9.375-.112 9.375-.063 18.755-.053 18.755.052 9.375.063 9.375.112-9.375.112-9.375.063-18.755.052-18.755-.056-9.375-.064-9.375-.109zm0 4.588l9.375-.112 9.375-.063 18.755-.056 18.755.052 9.375.063 9.375.111-9.375.112-9.375.063-18.76.05-18.755-.055-9.375-.062-9.37-.1zm35.854-68.78a4.18 4.18 0 0 1 .827-.177 7.1 7.1 0 0 1 .828-.05 6.85 6.85 0 0 1 .828.049c.281.031.559.091.828.178a4.2 4.2 0 0 1-.828.178 6.86 6.86 0 0 1-.828.048 7 7 0 0 1-.83-.049c-.28-.032-.557-.091-.825-.177zm-6.1 4.589q1.94-.131 3.88-.175l3.879-.05 3.88.05 3.88.176q-1.945.132-3.883.172l-3.88.05q-1.94 0-3.879-.05l-3.88-.177zm-6.1 4.594q3.467-.132 6.932-.176l6.932-.05 6.932.05 6.932.176q-3.467.131-6.932.176-6.932.1-13.864 0l-6.932-.176zm-6.1 4.593l4.992-.112 4.993-.063 9.984-.052 9.984.052 4.993.063 4.992.112-4.992.112-4.993.063-9.984.052-9.995-.052-4.993-.063zm-6.09 4.581l6.514-.112 6.515-.063 13.03-.052 13.029.052 6.515.063 6.515.112-6.515.112-6.515.063-13.029.052-13.03-.052-6.515-.063-6.514-.112zm-6.136 4.594l8.045-.112 8.044-.062 16.089-.053 16.09.052 8.044.063 8.045.112-8.045.112-8.044.063-16.09.052-16.089-.055-8.04-.061-8.049-.111zm-5.33 4.593l9.375-.112 9.375-.063 18.754-.052 18.754.052 9.376.063 9.375.112-9.375.112-9.376.063-18.754.052-18.754-.052-9.375-.063z"
        class="K" />
    <path d="M88.817 187.849h23.347v19.927H88.817z" class="P" />
    <path d="M56.148 172.818l6.3-2.728v54.869h-6.3z" opacity=".614" class="K" />
    <path d="M56.634 172.818l5.32-2.728v54.869h-5.32z" class="B" />
    <path d="M121.654 172.818l-6.638-2.728v54.869h6.638z" opacity=".614" class="K" />
    <path d="M120.994 172.818l-5.316-2.728v54.869h5.316z" class="B" />
    <path d="M132.141 180.584h-3.979l-39.345-29.6-39.346 29.6h-3.979L88.816 148z" class="R" />
    <path d="M101.634 178.206H91.62v-19.922l10.014 7.8zm-9.269-.752h8.518v-11l-8.518-6.636z" class="K" />
    <path d="M92.296 159.668v17.86h8.667v-11.11z" class="P" />
    <path d="M101.334 177.9h-9.413v-19l9.413 7.336zm-8.666-.75h7.917V166.6l-7.917-6.167z" class="B" />
    <path d="M86.011 178.206H75.993v-12.114l10.018-7.8zm-9.269-.749h8.52v-17.632l-8.52 6.634z" class="K" />
    <path d="M85.334 159.668v17.86H76.67v-11.11z" class="P" />
    <g class="B">
        <path
            d="M85.709 177.9h-9.414v-11.664l9.413-7.336zm-8.665-.75h7.918v-16.712l-7.918 6.168zm34.385 30.079H89.307v-18.89h22.122zm-21.053-1.066h19.986V189.4H90.376z" />
        <path d="M97.363 188.872h1.066v17.82h-1.066z" />
    </g>
    <path d="M83.834 224.958H65.353V187.5h18.481z" class="P" />
    <path
        d="M82.223 222.868H66.959v-11.86h15.263zm-14.952-.31h14.644v-11.245H67.271zm14.952-13.208H66.959v-20.383h15.263zm-14.952-.31h14.644v-19.763H67.271z"
        fill="#eeedec" />
    <path d="M82.408 209.664a.53.53 0 0 1 .3-.1.54.54 0 0 1 .382.924.54.54 0 0 1-.923-.384h-2.033v-.44z"
        fill="#e1f0fa" />
    <path d="M126.985 214.947h.115a1 1 0 0 1 1 1v9.573h-2.115v-9.573a1 1 0 0 1 1-1z" class="R" />
    <rect width="20.089" height="11.631" rx="1" x="117.526" y="206.489" class="D" /><text font-size="5"
        font-family="SourceSansPro-Bold, Source Sans Pro" font-weight="700" class="B">
        <tspan x="120.698" y="214.661">———</tspan>
    </text>
    <g class="F">
        <path d="M16.634 225.521h130.051" stroke="#265173" />
        <g stroke-width="2" class="H">
            <path
                d="M303.365 262.548h9.705a1.46 1.46 0 0 0 1.46-1.46v-8.573a1.46 1.46 0 0 0-1.46-1.46h-11.324a1.46 1.46 0 0 0-1.46 1.46v12.584c.001.142.089.269.222.319s.283.014.378-.092z"
                stroke="#000" />
            <path d="M303.17 247.143h13.5c.482.01.94.212 1.273.56s.515.814.504 1.296v10.591" stroke="#010101"
                class="S" />
        </g>
        <path
            d="M284.97 251.868a6.64 6.64 0 0 0-6.639-6.639 6.64 6.64 0 0 0-6.639 6.639c-.003 7.745-3.322 9.961-3.322 9.961h19.917s-3.317-2.216-3.317-9.961m-4.728 14.384c-.396.682-1.125 1.102-1.914 1.102s-1.518-.42-1.914-1.102"
            stroke-width="2" stroke="#000" class="G S" />
    </g>
    <g transform="translate(232.37 244.999)" opacity=".8" clip-path="url(#B)" stroke-width="2.5" class="F G I">
        <path d="M10.5,18A7.5,7.5,0,1,0,3,10.5,7.5,7.5,0,0,0,10.5,18Z" />
        <path d="M15.8,15.8,21,21" class="S" />
    </g>
    <g fill="rgba(230,230,230,0)">
        <path d="M148.431 244.415h24v24h-24z" />
        <path d="M148.431 244.415h24v24h-24z" />
    </g>
    <path
        d="M160.431 247.204c-5.087 0-9.211 4.124-9.211 9.211s4.124 9.211 9.211 9.211 9.211-4.124 9.211-9.211-4.124-9.211-9.211-9.211z"
        fill="#ffc107" />
    <path
        d="M160.431 266.415c-5.523 0-10-4.477-10-10s4.477-10 10-10 10 4.477 10 10-4.477 10-10 10zm0-18.421c-4.651 0-8.421 3.77-8.421 8.421s3.77 8.421 8.421 8.421 8.421-3.77 8.421-8.421-3.77-8.421-8.421-8.421z"
        fill="#fd8f25" />
    <path d="M160.429 249.913a6.5 6.5 0 1 0 0 13 6.5 6.5 0 1 0 0-13z" fill="#ff8f00" />
    <path
        d="M163.825 251.415h-1.459c-.055 0-.108.022-.147.061s-.061.092-.061.147v5.625h-.035l-3.875-5.745c-.043-.056-.11-.088-.181-.088h-1.326c-.055 0-.108.022-.147.061s-.061.092-.061.147v8.75c0 .055.022.108.061.147s.092.061.147.061h1.459c.055 0 .108-.022.147-.061s.061-.092.061-.147v-5.625h.035l3.875 5.745a.24.24 0 0 0 .187.088h1.32c.055 0 .108-.022.147-.061s.061-.092.061-.147v-8.75c0-.055-.022-.108-.061-.147s-.092-.061-.147-.061z"
        class="B" />
    <use xlink:href="#O" fill="#ffcc5c" />
    <path d="M199.511 260.687l-1.925-1.754v-2.208h3.849v2.208z" class="T" />
    <path d="M197.586 257.71a2.2 2.2 0 0 0 3.849 0v-.985h-3.849z" class="U" />
    <path
        d="M195.938 253.685c-.019-.546.4-.165.4-.165s-.737-4.523 3.171-4.523c3.964 0 3.172 4.523 3.172 4.523s.419-.382.4.165c-.008.315-.058.627-.147.929-.049.395-.287.742-.638.93-.047.557-.242 1.092-.564 1.549-.456.457-1.185 1.5-2.225 1.459-1.038.036-1.768-1-2.223-1.459-.323-.457-.518-.992-.565-1.549a1.23 1.23 0 0 1-.638-.93 3.6 3.6 0 0 1-.145-.929"
        class="V" />
    <path
        d="M199.462 267.127c3.5 0 5.4-.3 7.692-2.6l-.041-2.405c-.054-.165-.219-.583-.474-.656s-3.919-1.55-4.484-1.786l-2.627.671-2.66-.671-4.484 1.786c-.255.073-.419.491-.474.656-.038.112-.09 1.917-.09 2.405 2.283 2.251 4.184 2.6 7.644 2.6"
        class="B" />
    <path d="M199.293 260.587l-1.176 1.655-1.441-2.488.82-.893zm.435 0l1.177 1.655 1.441-2.488-.832-.893z"
        fill="#d3cdcd" />
    <path
        d="M200.327 260.804l-.328-.474a.2.2 0 0 0-.125-.052h-.729a.2.2 0 0 0-.125.052l-.328.474c-.076.055-.1.157-.059.241.1.308.43.441.487.7l-.4 5.48c-.059.778 1.625.754 1.564-.03l-.4-5.417c.058-.257.4-.423.5-.731a.2.2 0 0 0-.06-.241"
        fill="#c93939" />
    <path d="M199.293 260.278l-1.176 1.655-1.526-2.308.9-1.073zm.435 0l1.177 1.655 1.527-2.308-.917-1.073z" class="B" />
    <path
        d="M199.539 249.044c-3.11 0-3.328 2.93-3.248 3.822.054.608.4.915.392.777a2.93 2.93 0 0 1 .508-2c.458-.466 1.217.063 2.241.063 1.092 0 1.935-.633 2.43-.068a3.01 3.01 0 0 1 .489 1.915c.006.139.265-.1.32-.711.08-.893-.09-3.8-3.132-3.8"
        class="W" />
    <path
        d="M199.445 248.759c-3.387 0-3.386 3.059-3.308 3.928a3.45 3.45 0 0 0 .207 1.117c.127.319.227.439.257.526.122.362.146-.4.173-.531.339-1.638 3.4-.992 4.553-2.27a6.6 6.6 0 0 0 .926 2.115c.067.118.094.933.188.686a5.72 5.72 0 0 0 .256-.526 4.15 4.15 0 0 0 .191-1.2 3.3 3.3 0 0 0-3.444-3.844"
        fill="#634335" />
    <path
        d="M199.48 268.415c3.166-.002 6.211-1.219 8.507-3.4l-.874-3.41c-.054-.165-.219-.583-.475-.656-.218-.062-2.83-1.151-4.042-1.613l-3.109 5.47-3.1-5.454-4 1.6c-.255.074-.419.492-.474.656a213.5 213.5 0 0 0-.9 3.442c2.293 2.16 5.323 3.364 8.473 3.365"
        fill="#242f3f" />
    <use xlink:href="#O" x="4.709" fill="#96ceb4" />
    <path d="M201.41 256.963a5.71 5.71 0 0 0 2.784.631 5.9 5.9 0 0 0 2.813-.631l.632-1.809-6.832-.172z"
        fill="#a06637" />
    <path
        d="M209.106 261.189s-3.017-1.688-3.282-3.132a13.45 13.45 0 0 1-.169-2.093l-1.334-.087v-.034l-1.659.121c-.003.701-.059 1.401-.169 2.093-.266 1.445-3.584 3.132-3.584 3.132l5.388.565v-.15z"
        class="T" />
    <path
        d="M205.655 255.962l-1.334-.087v-.034l-1.659.121s0 .715-.08 1.471a2.87 2.87 0 0 0 1.641.925 2.73 2.73 0 0 0 1.525-.81 15.24 15.24 0 0 1-.093-1.586"
        class="U" />
    <path
        d="M200.981 253.98c-.016-.469.343-.141.343-.141s-.553-3.876 2.9-3.876 2.892 3.876 2.892 3.876.359-.328.344.141c-.007.271-.049.54-.126.8-.04.34-.244.639-.546.8-.187.501-.433.978-.733 1.421a2.92 2.92 0 0 1-1.831 1.156 2.98 2.98 0 0 1-1.852-1.179 6.59 6.59 0 0 1-.719-1.4 1.05 1.05 0 0 1-.547-.8 3.09 3.09 0 0 1-.125-.8"
        class="V" />
    <path
        d="M207.292 250.121c-.732-.95-1.883-1.482-3.081-1.424-1.194-.038-2.336.49-3.081 1.424-1.249 1.478.58 7.046.58 7.046.1.229-1.278-4.449.963-5.617a6.6 6.6 0 0 0 1.173 1.139 3.46 3.46 0 0 0 3.251.459 12.73 12.73 0 0 1-.371 3.954s1.85-5.369.567-6.98"
        class="W" />
    <path
        d="M207.292 249.891c-.732-.95-1.883-1.482-3.081-1.424-1.194-.038-2.336.49-3.081 1.424-1.249 1.479-1.121 4.7.038 7.206.124.27.689.339.689.339.1.229-1.425-4.949.816-6.117a6.6 6.6 0 0 0 1.173 1.14c.85.765 2.056.989 3.124.58a16.11 16.11 0 0 1-.4 4.4c0 0 .582-.109.689-.339 1.168-2.506 1.321-5.6.038-7.206"
        fill="#c1874d" />
    <path
        d="M204.185 268.415c3.2-.002 6.275-1.244 8.578-3.466l-.746-2.782c-.363-1.5-.885-1.362-.885-1.362l-4.347-1.514c.051.065-.2 1.173-2.621 1.173s-2.788-1.056-2.727-1.131l-4.3 1.472s-.524-.14-.884 1.362l-.737 2.7a12.37 12.37 0 0 0 8.667 3.55"
        fill="#446d9e" />
    <path
        d="M220.37 256c-.001 6.856-5.559 12.413-12.414 12.413s-12.413-5.558-12.414-12.414 5.557-12.414 12.413-12.414c6.848.02 12.395 5.567 12.415 12.415"
        fill="#ff6f69" />
    <path d="M207.912 260.416l-1.887-1.72v-2.166h3.773v2.166z" class="T" />
    <path d="M206.025 257.496a2.63 2.63 0 0 0 1.886 1.113 2.63 2.63 0 0 0 1.888-1.113v-.966h-3.774z" class="U" />
    <path
        d="M204.407 253.548c-.018-.536.394-.162.394-.162s-.841-4.261 3.109-4.261 3.112 4.261 3.112 4.261.411-.374.394.162a3.51 3.51 0 0 1-.145.911 1.2 1.2 0 0 1-.625.912 3.1 3.1 0 0 1-.554 1.52c-.447.447-1.162 1.466-2.182 1.43-1.017.036-1.734-.983-2.18-1.43a3.09 3.09 0 0 1-.554-1.518 1.2 1.2 0 0 1-.626-.912c-.087-.296-.135-.602-.143-.911"
        class="V" />
    <path d="M210.926 266.394h-5.79v-6.548l2.792.183 2.975-.183z" fill="#def1fc" />
    <path d="M207.565 260.256l-1.257 1.573-1.172-2.193.859-1.021zm.692 0l1.259 1.573 1.17-2.193-.87-1.019z"
        fill="#97b8c9" />
    <path
        d="M208.638 263.236l-.259-1.745c.055-.243.272-.508.364-.8.041-.08.018-.178-.055-.231l-.312-.45c-.033-.029-.074-.047-.118-.049h-.693a.2.2 0 0 0-.119.049l-.31.45c-.073.053-.096.151-.056.231.092.291.309.556.365.8l-.261 1.745-.467 3.2s-.813.878-.141 1.663l1.226.071a12.36 12.36 0 0 0 1.48-.1c.33-.518.258-1.196-.175-1.633l-.468-3.2"
        fill="#3a4456" />
    <path
        d="M207.956 268.415c3.192-.002 6.26-1.238 8.561-3.45l-.9-3.253c-.051-.156-.208-.554-.45-.624s-4.208-1.472-4.746-1.7l-2.576 8.752-2.444-8.749c-.537.225-4.5 1.629-4.745 1.7s-.4.467-.45.624c-.032.093-.523 1.728-.9 3.164a12.37 12.37 0 0 0 8.655 3.539"
        fill="#d6d2d0" />
    <path d="M207.566 259.962l-1.258 1.571-.843-2.287.529-.923zm.692 0l1.259 1.571.846-2.287-.546-.924z"
        fill="#def1fc" />
    <g fill="#afa5a0">
        <path
            d="M207.815 268.084l-1.64-6.774h0v-.01l-.011-.048-.009-.01-.707-1.982s-.041-.109.1-.265c.056-.06-.75.484-.75.484l-.368.881.647.565-.846.9z" />
        <path
            d="M210.685 260.926l.647-.565-.367-.881-.752-.484c.144.156.1.266.1.266l-.707 1.982-.01.01-1.872 6.752.015.4h.049a2.17 2.17 0 0 1 .08-.242c.149-.32 3.659-6.34 3.659-6.34z" />
    </g>
    <path
        d="M211.213 250.221c-.918-.847-2.096-1.356-3.341-1.445-1.219.093-2.368.603-3.254 1.445-.538.9.124 2.284.159 2.695.038.332.129.656.268.96a3.81 3.81 0 0 1 .532-2.325c.469-.477 1.864 0 2.294 0s1.913-.473 2.382 0a3.81 3.81 0 0 1 .532 2.325c.14-.279.227-.581.259-.891.034-.412.707-1.859.168-2.763"
        class="W" />
    <path
        d="M211.214 249.996a5.51 5.51 0 0 0-3.341-1.445c-1.219.092-2.368.603-3.254 1.445-.538.9-.077 2.347-.042 2.758a2.7 2.7 0 0 0 .16.9c.137.343.068.717.313.708v-.713a3.81 3.81 0 0 1 .532-2.325c.469-.477 1.864 0 2.294 0s1.913-.474 2.382 0a3.81 3.81 0 0 1 .532 2.325v.713c.245.008.176-.366.313-.708a2.74 2.74 0 0 0 .16-.9c.035-.41.5-1.854-.043-2.758"
        fill="#261b11" />
    <g class="F">
        <g class="H I">
            <path
                d="M120.255 258.788l.7-.7c.244-.243.282-.637-.015-1.7-.278-1.022-.061-2.116.588-2.954l.943-.943m10.093 4.441l-4.24 4.24c-1.413 1.413-2.356.471-3.3 1.413l-.471.472" />
            <path
                d="M117.25 259.99l5.653 5.653 2.121-2.121-5.653-5.653zm11.547-8.247l-.943.943m2.356.471l-.943.943m2.357.472l-.943.943m1.885 1.413c.318-.413.394-.963.201-1.447s-.628-.829-1.144-.909c.228-.515-.449-1.561-1.413-1.413.236-.707-.663-1.532-1.413-1.413-.017-.55-.358-1.039-.869-1.243s-1.095-.087-1.487.3l-3.526 3.535" />
            <path
                d="M123.596 253.999l-1.848-1.631c-.139-.116-.327-.154-.5-.1a3.84 3.84 0 0 1-3.712-.669c-.852-.703-1.251-1.816-1.04-2.9a.44.44 0 0 1 .326-.315c.165-.046.341-.008.473.1l1.58 1.373a.52.52 0 0 0 .666 0l1.333-1.159c.088-.071.138-.177.138-.29s-.051-.219-.138-.29l-1.579-1.374c-.121-.099-.168-.263-.118-.411.061-.153.2-.261.363-.283a4.14 4.14 0 0 1 3.334.909 2.73 2.73 0 0 1 .776 3.23.38.38 0 0 0 .109.437l1.855 1.628m6.122 5.325l2.927 2.525a1.12 1.12 0 0 1 0 1.739 1.57 1.57 0 0 1-2 0l-2.921-2.525"
                class="G" />
        </g>
        <g stroke="#464646">
            <path
                d="M89.623 257.398l.606-.606c.211-.211.243-.551-.013-1.471a2.92 2.92 0 0 1 .508-2.554l.815-.815m8.726 3.84l-3.665 3.664c-1.222 1.222-2.037.407-2.853 1.222l-.407.408" />
            <path
                d="M87.025 258.441l4.888 4.888 1.834-1.834-4.888-4.888zm9.983-7.13l-.815.815m2.037.407l-.815.815m2.038.408l-.815.815m1.63 1.222c.275-.357.34-.833.173-1.251s-.543-.717-.988-.786c.2-.445-.388-1.349-1.222-1.222.2-.611-.573-1.324-1.222-1.222a1.2 1.2 0 0 0-2.037-.815l-3.048 3.057" />
            <path
                d="M92.515 252.953l-1.6-1.621c-.114-.113-.283-.149-.434-.094a2.99 2.99 0 0 1-3.211-.671c-.755-.755-1.091-1.833-.9-2.883a.41.41 0 0 1 .691-.211l1.366 1.365c.076.076.18.119.288.119s.212-.043.288-.119l1.152-1.152c.076-.076.119-.18.119-.288s-.043-.212-.119-.288l-1.365-1.366a.41.41 0 0 1 .211-.691c1.05-.191 2.128.145 2.883.9a2.99 2.99 0 0 1 .671 3.211c-.055.151-.018.32.094.434l1.6 1.618m5.293 5.294l2.53 2.51c.322.306.453.763.342 1.193s-.447.766-.878.878-.887-.02-1.193-.342l-2.526-2.511"
                class="G" />
        </g>
        <g stroke="#535353" class="G">
            <path
                d="M70.305 261.605v2.382h-6.768v-5.164h-3.216v5.164h-2.783v-8.751m-1.578 1.575l8.75-8.75 3.986 3.986m-7.571-.399v-3.179h-1.98v5.164" />
            <use xlink:href="#P" />
            <path d="M70.694 260.065l3.624 3.624" />
        </g>
        <path
            d="M35.646 261.612v2.382h-6.768v-5.164h-3.216v5.164h-2.783v-8.751m-1.578 1.575l8.75-8.75 3.986 3.986m-7.571-.399v-3.179h-1.98v5.164"
            class="I G" />
    </g>
    <use xlink:href="#P" x="-34.659" y="0.007" fill="#0E578C" class="G I" />
    <path d="M36.035 260.072l3.624 3.624" class="F G I" />
</svg>