<?xml version="1.0" encoding="UTF-8"?>
<svg id="Layer_2" data-name="Layer 2" xmlns="http://www.w3.org/2000/svg" viewBox="0 0 103.84 107.23">
  <defs>
    <style>
      .cls-1, .cls-2, .cls-3, .cls-4 {
        stroke-width: 0px;
      }

      .cls-1, .cls-4 {
        fill: #3b82f6;
      }

      .cls-2 {
        fill: none;
      }

      .cls-3 {
        fill: #000;
        opacity: .29;
      }

      .cls-3, .cls-4 {
        fill-rule: evenodd;
      }
    </style>
  </defs>
  <g id="Layer_1-2" data-name="Layer 1">
    <path class="cls-1" d="M47.56,0C21.29,0,0,21.29,0,47.56s21.29,47.56,47.56,47.56c9.14,0,17.67-2.58,24.92-7.04l-9.88-9.17c-4.55,2.19-9.65,3.41-15.04,3.41-19.2,0-34.76-15.56-34.76-34.76S28.36,12.81,47.56,12.81s34.76,15.56,34.76,34.76c0,8.08-2.74,15.5-7.36,21.39l9.41,8.74c6.72-8.2,10.76-18.7,10.76-30.13C95.13,21.29,73.83,0,47.56,0Z"/>
    <path class="cls-1" d="M103.84,99.38c0,1.91-.7,3.82-2.09,5.33-2.95,3.18-7.92,3.37-11.1.42l-15.41-14.31c4.52-2.78,8.54-6.3,11.89-10.39l14.21,13.18c1.67,1.55,2.52,3.65,2.52,5.76Z"/>
    <path class="cls-1" d="M84.37,77.69c-3.35,4.09-7.37,7.61-11.89,10.39l-9.88-9.17c4.85-2.33,9.07-5.75,12.36-9.95l9.41,8.74Z"/>
    <path class="cls-2" d="M.91,21.04h49.39v49.39H.91V21.04Z"/>
    <path class="cls-4" d="M70.54,35.75c-.45-.53-.96-1.01-1.53-1.42l-13.89-10.19c-3.26-2.39-7.69-2.39-10.96,0l-13.89,10.19c-2.39,1.75-3.79,4.52-3.79,7.46v18.46c0,1.78.5,3.45,1.37,4.87,1.7,1.98,4.23,3.23,7.03,3.23h27.78c5.12,0,9.27-4.14,9.27-9.27v-18.46c0-1.75-.49-3.43-1.4-4.88ZM42.61,54.45v-4.63c0-3.41,2.76-6.17,6.17-6.17,2.31,0,4.34,1.28,5.39,3.17.5.89.79,1.91.79,3v4.63c0,.85-.7,1.55-1.55,1.55h-9.27c-.24,0-.47-.05-.67-.16-.51-.25-.87-.78-.87-1.39Z"/>
    <line class="cls-2" x1="54.23" y1="47.02" x2="42.63" y2="54.48"/>
    <path class="cls-3" d="M70.79,36.18l-16.6,10.67c.48.87.75,1.88.75,2.94v4.63c0,.85-.7,1.55-1.55,1.55h-9.27c-.24,0-.47-.05-.67-.16-.51-.25-.87-.78-.87-1.39v-.11l-15.27,9.81c.16.33.32.65.51.96,1.7,1.98,4.23,3.23,7.03,3.23h27.78c5.12,0,9.27-4.14,9.27-9.27v-18.46c0-1.56-.39-3.07-1.13-4.41Z"/>
  </g>
</svg>