<?xml version="1.0" encoding="UTF-8"?>
<svg id="Layer_2" data-name="Layer 2" xmlns="http://www.w3.org/2000/svg" viewBox="0 0 493.61 91.64">
  <defs>
    <style>
      .cls-1 {
        fill: #3b82f6;
      }

      .cls-1, .cls-2, .cls-3, .cls-4, .cls-5, .cls-6 {
        stroke-width: 0px;
      }

      .cls-2 {
        fill: none;
      }

      .cls-3 {
        fill: #fff;
        opacity: .15;
      }

      .cls-3, .cls-6 {
        fill-rule: evenodd;
      }

      .cls-4, .cls-6 {
        fill: #071e3c;
      }

      .cls-5 {
        fill: #176acf;
      }
    </style>
  </defs>
  <g id="Layer_1-2" data-name="Layer 1">
    <g>
      <path class="cls-1" d="M72.11,66.4c-2.86,3.49-6.3,6.5-10.16,8.88l-8.44-7.84c4.14-1.99,7.75-4.92,10.56-8.51l8.04,7.47Z"/>
      <path class="cls-2" d="M.78,17.98h42.21v42.21H.78V17.98Z"/>
      <path class="cls-6" d="M58.04,31.56c-.34-.4-.72-.75-1.14-1.06l-10.4-7.64c-2.44-1.79-5.76-1.79-8.21,0l-10.41,7.64c-1.79,1.31-2.84,3.39-2.84,5.59v13.83c0,1.34.38,2.58,1.03,3.65,1.27,1.48,3.17,2.42,5.27,2.42h20.81c3.84,0,6.94-3.1,6.94-6.94v-13.83c0-1.31-.37-2.57-1.05-3.65ZM37.11,45.58v-3.47c0-2.56,2.07-4.63,4.63-4.63,1.73,0,3.25.96,4.04,2.38.38.66.59,1.43.59,2.25v3.47c0,.64-.52,1.16-1.16,1.16h-6.94c-.18,0-.35-.04-.5-.12-.38-.19-.65-.58-.65-1.04Z"/>
      <line class="cls-2" x1="46.35" y1="40.19" x2="36.44" y2="46.56"/>
      <path class="cls-3" d="M58.23,31.88l-12.44,8c.36.65.56,1.41.56,2.2v3.47c0,.64-.52,1.16-1.16,1.16h-6.94c-.18,0-.35-.04-.5-.12-.38-.19-.65-.58-.65-1.04v-.08l-11.44,7.35c.12.25.24.49.38.72,1.27,1.48,3.17,2.42,5.27,2.42h20.81c3.84,0,6.94-3.1,6.94-6.94v-13.83c0-1.17-.29-2.3-.84-3.3Z"/>
      <path class="cls-1" d="M40.65,0C18.2,0,0,18.2,0,40.65s18.2,40.65,40.65,40.65c7.81,0,15.1-2.2,21.29-6.02l-8.44-7.84c-3.89,1.87-8.25,2.92-12.85,2.92-16.41,0-29.71-13.3-29.71-29.71s13.3-29.71,29.71-29.71,29.71,13.3,29.71,29.71c0,6.9-2.35,13.25-6.29,18.29l8.04,7.47c5.75-7.01,9.19-15.98,9.19-25.75C81.3,18.2,63.1,0,40.65,0Z"/>
      <path class="cls-4" d="M88.74,84.94c0,1.63-.59,3.27-1.79,4.56-2.53,2.72-6.77,2.88-9.49.36l-13.17-12.23c3.86-2.38,7.3-5.39,10.16-8.88l12.14,11.26c1.43,1.32,2.15,3.12,2.15,4.92Z"/>
    </g>
    <g>
      <path class="cls-5" d="M121.72,69.55c1.05,1.05,1.58,2.31,1.58,3.78s-.5,2.71-1.49,3.79c-.99,1.08-2.21,1.61-3.66,1.61h-3.95v.02h-4.17v-17.1h7.7c1.35,0,2.5.5,3.45,1.5s1.42,2.18,1.42,3.55c0,1.02-.29,1.97-.88,2.85ZM114.19,68.1l3.53-.05c.32,0,.58-.12.78-.35.2-.23.3-.52.3-.85s-.1-.62-.3-.88c-.2-.25-.46-.38-.78-.38h-3.53v2.5ZM114.19,74.8h3.95c.35,0,.64-.16.88-.47s.35-.66.35-1.03-.12-.7-.35-1.01c-.23-.31-.52-.46-.88-.46h-3.95v2.97Z"/>
      <path class="cls-5" d="M147.27,73c0,1.8-.67,3.27-2.01,4.4-1.34,1.13-2.94,1.7-4.79,1.7s-3.44-.56-4.78-1.68c-1.33-1.12-2-2.59-2-4.42v-11.35h4.15v11.35c0,.62.27,1.1.81,1.44.54.34,1.15.51,1.81.51.72,0,1.34-.16,1.86-.48.53-.32.79-.81.79-1.48v-11.35h4.15v11.35Z"/>
      <path class="cls-5" d="M168.85,61.65h4.7l-6.1,11.35v5.75h-4.17v-5.8l-6.1-11.3h4.7l3.5,6.43,3.48-6.43Z"/>
      <path class="cls-5" d="M181.75,77c0-1.37.68-2.05,2.05-2.05s2.03.68,2.03,2.05c0,.65-.18,1.16-.53,1.52-.35.37-.85.55-1.5.55s-1.17-.18-1.53-.54c-.35-.36-.52-.87-.52-1.54Z"/>
      <path class="cls-5" d="M203.5,79.1c-1.57,0-2.95-.35-4.15-1.06s-2.08-1.75-2.62-3.14l3.5-2.05c.58,1.45,1.71,2.17,3.38,2.17.45,0,.9-.12,1.34-.38.44-.25.66-.58.66-1,0-.52-.38-.92-1.15-1.23-.53-.22-1.18-.43-1.93-.65-1.6-.48-2.85-1.12-3.74-1.91-.89-.79-1.34-1.93-1.34-3.41s.54-2.77,1.64-3.71c1.09-.94,2.43-1.41,4.01-1.41,2.87,0,4.92,1.27,6.15,3.82l-3.55,2.08c-.3-.62-.65-1.07-1.04-1.35-.39-.28-.91-.42-1.56-.42-.35,0-.69.08-1.01.25-.32.17-.49.42-.49.75,0,.48.3.87.9,1.15.43.2,1.01.42,1.72.65,1.7.52,3.05,1.2,4.04,2.06.99.86,1.49,2.05,1.49,3.59,0,1.62-.62,2.89-1.85,3.81-1.23.93-2.7,1.39-4.4,1.39Z"/>
      <path class="cls-5" d="M224.42,74.83h6.68v3.92h-10.85v-17.1h10.73v3.95h-6.55v2.45h5.95v3.93h-5.95v2.85Z"/>
      <path class="cls-5" d="M246.52,74.83h6.62v3.92h-10.8v-17.1h4.17v13.18Z"/>
      <path class="cls-5" d="M268.07,74.83h6.62v3.92h-10.8v-17.1h4.17v13.18Z"/>
      <path class="cls-5" d="M285.22,77c0-1.37.68-2.05,2.05-2.05s2.03.68,2.03,2.05c0,.65-.18,1.16-.53,1.52-.35.37-.85.55-1.5.55s-1.17-.18-1.53-.54c-.35-.36-.52-.87-.52-1.54Z"/>
      <path class="cls-5" d="M307.24,73.25h-2v5.5h-4.17v-17.1h7.25c1.6,0,2.96.56,4.09,1.69s1.69,2.5,1.69,4.11c0,.98-.23,1.9-.69,2.76-.46.86-1.1,1.55-1.91,2.09l3.58,6.45h-4.75l-3.08-5.5ZM305.24,69.3h3.08c.5,0,.93-.18,1.3-.55.37-.37.55-.8.55-1.3,0-.53-.18-.98-.53-1.33s-.79-.52-1.33-.52h-3.08v3.7Z"/>
      <path class="cls-5" d="M329.37,74.83h6.68v3.92h-10.85v-17.1h10.73v3.95h-6.55v2.45h5.95v3.93h-5.95v2.85Z"/>
      <path class="cls-5" d="M357.02,61.65h4.17v17.1h-3.48l-6.25-9.77v9.77h-4.17v-17.1h4.17l5.55,8.7v-8.7Z"/>
      <path class="cls-5" d="M384.44,65.6h-4.3v13.15h-4.15v-13.15h-4.33v-3.95h12.78v3.95Z"/>
    </g>
    <g>
      <path class="cls-4" d="M140.85,32.02c0,4.84-1.84,8.95-5.51,12.32-3.68,3.37-7.97,5.06-12.88,5.06s-9.52-1.83-13.2-5.49c-3.68-3.66-5.51-8.06-5.51-13.22s1.82-9.56,5.46-13.2c3.64-3.64,8.06-5.46,13.25-5.46,2.93,0,5.68.64,8.24,1.91,2.56,1.27,4.74,3.09,6.54,5.46l-6.89,5.46c-2.08-2.69-4.72-4.03-7.9-4.03-2.69,0-5.01.97-6.97,2.92-1.96,1.94-2.94,4.26-2.94,6.94s.98,5,2.94,6.94c1.96,1.94,4.28,2.92,6.97,2.92,3.18,0,5.74-1.25,7.69-3.76h-9.33v-8.37h20.03v3.6Z"/>
      <path class="cls-4" d="M166.55,37.01h-4.24v11.66h-8.85V12.41h15.37c3.39,0,6.28,1.19,8.67,3.58,2.38,2.38,3.58,5.29,3.58,8.72,0,2.09-.49,4.04-1.46,5.86-.97,1.82-2.32,3.3-4.05,4.43l7.58,13.67h-10.07l-6.52-11.66ZM162.31,28.63h6.52c1.06,0,1.98-.39,2.76-1.17.78-.78,1.17-1.7,1.17-2.76,0-1.13-.37-2.07-1.11-2.81-.74-.74-1.68-1.11-2.81-1.11h-6.52v7.84Z"/>
      <path class="cls-4" d="M193.37,12.41h8.85v36.25h-8.85V12.41Z"/>
      <path class="cls-4" d="M239.85,12.41h8.8v36.25h-8.8v-14.36h-14.52v14.36h-8.85V12.41h8.85v13.52h14.52v-13.52Z"/>
      <path class="cls-4" d="M285.22,48.67l-2.33-6.31h-12.46l-2.33,6.31h-9.43l13.25-36.25h9.43l13.3,36.25h-9.43ZM273.45,33.99h6.36l-3.13-8.74-3.23,8.74Z"/>
      <path class="cls-5" d="M330.53,29.16c2.23,2.23,3.34,4.89,3.34,8s-1.05,5.75-3.15,8.03c-2.1,2.28-4.69,3.42-7.76,3.42h-8.37v.05h-8.85V12.41h16.32c2.86,0,5.3,1.06,7.31,3.18,2.01,2.12,3.02,4.63,3.02,7.53,0,2.16-.62,4.17-1.86,6.04ZM314.58,26.09l7.47-.11c.67,0,1.22-.25,1.64-.74.42-.49.64-1.1.64-1.8s-.21-1.33-.64-1.85-.97-.79-1.64-.79h-7.47v5.3ZM314.58,40.29h8.37c.74,0,1.36-.34,1.86-1.01.49-.67.74-1.4.74-2.17s-.25-1.49-.74-2.15c-.5-.65-1.11-.98-1.86-.98h-8.37v6.31Z"/>
      <path class="cls-5" d="M369.38,12.41h8.8v36.25h-8.8v-14.36h-14.52v14.36h-8.85V12.41h8.85v13.52h14.52v-13.52Z"/>
      <path class="cls-4" d="M419.89,36.48c0,3.82-1.42,6.93-4.27,9.33-2.84,2.4-6.23,3.6-10.15,3.6s-7.3-1.18-10.12-3.55c-2.83-2.37-4.24-5.49-4.24-9.38V12.41h8.8v24.06c0,1.31.57,2.32,1.72,3.05,1.15.72,2.43,1.09,3.84,1.09,1.52,0,2.84-.34,3.95-1.01,1.11-.67,1.67-1.71,1.67-3.13V12.41h8.8v24.06Z"/>
      <path class="cls-4" d="M461.7,12.47v-.05h8.8v36.25h-8.8v-20.09l-8.43,14.15h-2.17l-8.43-14.15v20.09h-8.85V12.41h8.85l9.49,15.85,9.49-15.85.05.05Z"/>
      <path class="cls-4" d="M484.76,12.41h8.85v36.25h-8.85V12.41Z"/>
    </g>
  </g>
</svg>