<?xml version="1.0" encoding="UTF-8"?>
<svg id="Layer_2" data-name="Layer 2" xmlns="http://www.w3.org/2000/svg" viewBox="0 0 389.86 226.33">
  <defs>
    <style>
      .cls-1 {
        fill: #3b82f6;
      }

      .cls-1, .cls-2, .cls-3, .cls-4, .cls-5, .cls-6 {
        stroke-width: 0px;
      }

      .cls-2 {
        fill: none;
      }

      .cls-3 {
        fill: #fff;
        opacity: .15;
      }

      .cls-3, .cls-6 {
        fill-rule: evenodd;
      }

      .cls-4, .cls-6 {
        fill: #071e3c;
      }

      .cls-5 {
        fill: #176acf;
      }
    </style>
  </defs>
  <g id="Layer_1-2" data-name="Layer 1">
    <g>
      <path class="cls-1" d="M235.1,94.27c-4.06,4.96-8.95,9.23-14.43,12.61l-11.99-11.13c5.88-2.83,11.01-6.98,14.99-12.08l11.42,10.6Z"/>
      <path class="cls-2" d="M133.84,25.53h59.93v59.93h-59.93V25.53Z"/>
      <path class="cls-6" d="M215.13,44.81c-.48-.56-1.02-1.07-1.62-1.51l-14.77-10.84c-3.46-2.54-8.18-2.54-11.66,0l-14.78,10.84c-2.54,1.86-4.03,4.81-4.03,7.94v19.64c0,1.9.54,3.67,1.46,5.18,1.81,2.1,4.5,3.43,7.48,3.43h29.55c5.45,0,9.86-4.41,9.86-9.86v-19.64c0-1.86-.53-3.65-1.49-5.19ZM185.42,64.71v-4.92c0-3.63,2.94-6.57,6.57-6.57,2.46,0,4.61,1.36,5.73,3.38.54.94.84,2.03.84,3.19v4.92c0,.9-.74,1.64-1.64,1.64h-9.86c-.25,0-.5-.06-.71-.17-.54-.26-.92-.83-.92-1.48Z"/>
      <line class="cls-2" x1="198.54" y1="57.06" x2="184.46" y2="66.1"/>
      <path class="cls-3" d="M215.4,45.27l-17.66,11.36c.51.92.8,1.99.8,3.12v4.92c0,.9-.74,1.64-1.64,1.64h-9.86c-.25,0-.5-.06-.71-.17-.54-.26-.92-.83-.92-1.48v-.12l-16.24,10.44c.17.35.34.69.54,1.02,1.81,2.1,4.5,3.43,7.48,3.43h29.55c5.45,0,9.86-4.41,9.86-9.86v-19.64c0-1.66-.42-3.27-1.2-4.69Z"/>
      <path class="cls-1" d="M190.44,0c-31.87,0-57.71,25.84-57.71,57.71s25.84,57.71,57.71,57.71c11.09,0,21.44-3.13,30.23-8.55l-11.99-11.13c-5.52,2.65-11.71,4.14-18.25,4.14-23.3,0-42.17-18.88-42.17-42.17s18.88-42.17,42.17-42.17,42.17,18.88,42.17,42.17c0,9.8-3.33,18.81-8.93,25.96l11.42,10.6c8.16-9.96,13.05-22.69,13.05-36.56,0-31.87-25.84-57.71-57.71-57.71Z"/>
      <path class="cls-4" d="M258.72,120.58c0,2.32-.84,4.64-2.54,6.47-3.58,3.86-9.61,4.08-13.47.51l-18.7-17.36c5.48-3.37,10.37-7.65,14.43-12.61l17.24,15.99c2.03,1.88,3.05,4.43,3.05,6.99Z"/>
    </g>
    <g>
      <path class="cls-5" d="M70.84,216.78c1.05,1.05,1.58,2.31,1.58,3.78s-.5,2.71-1.49,3.79c-.99,1.08-2.21,1.61-3.66,1.61h-3.95v.03h-4.17v-17.1h7.7c1.35,0,2.5.5,3.45,1.5s1.42,2.18,1.42,3.55c0,1.02-.29,1.97-.88,2.85ZM63.31,215.33l3.53-.05c.32,0,.58-.12.78-.35.2-.23.3-.52.3-.85s-.1-.62-.3-.88c-.2-.25-.46-.38-.78-.38h-3.53v2.5ZM63.31,222.03h3.95c.35,0,.64-.16.88-.47s.35-.66.35-1.03-.12-.7-.35-1.01c-.23-.31-.52-.46-.88-.46h-3.95v2.97Z"/>
      <path class="cls-5" d="M96.39,220.23c0,1.8-.67,3.27-2.01,4.4-1.34,1.13-2.94,1.7-4.79,1.7s-3.44-.56-4.78-1.67c-1.33-1.12-2-2.59-2-4.42v-11.35h4.15v11.35c0,.62.27,1.1.81,1.44.54.34,1.15.51,1.81.51.72,0,1.34-.16,1.86-.48.53-.32.79-.81.79-1.47v-11.35h4.15v11.35Z"/>
      <path class="cls-5" d="M117.97,208.88h4.7l-6.1,11.35v5.75h-4.17v-5.8l-6.1-11.3h4.7l3.5,6.43,3.48-6.43Z"/>
      <path class="cls-5" d="M130.87,224.23c0-1.37.68-2.05,2.05-2.05s2.03.68,2.03,2.05c0,.65-.18,1.16-.53,1.52-.35.37-.85.55-1.5.55s-1.17-.18-1.53-.54c-.35-.36-.52-.87-.52-1.54Z"/>
      <path class="cls-5" d="M152.62,226.33c-1.57,0-2.95-.35-4.15-1.06-1.2-.71-2.08-1.75-2.62-3.14l3.5-2.05c.58,1.45,1.71,2.17,3.38,2.17.45,0,.9-.12,1.34-.38.44-.25.66-.58.66-1,0-.52-.38-.92-1.15-1.22-.53-.22-1.18-.43-1.93-.65-1.6-.48-2.85-1.12-3.74-1.91-.89-.79-1.34-1.93-1.34-3.41s.54-2.77,1.64-3.71,2.43-1.41,4.01-1.41c2.87,0,4.92,1.27,6.15,3.82l-3.55,2.08c-.3-.62-.65-1.07-1.04-1.35s-.91-.42-1.56-.42c-.35,0-.69.08-1.01.25-.32.17-.49.42-.49.75,0,.48.3.87.9,1.15.43.2,1.01.42,1.72.65,1.7.52,3.05,1.2,4.04,2.06.99.86,1.49,2.05,1.49,3.59,0,1.62-.62,2.89-1.85,3.81-1.23.93-2.7,1.39-4.4,1.39Z"/>
      <path class="cls-5" d="M173.54,222.06h6.68v3.92h-10.85v-17.1h10.73v3.95h-6.55v2.45h5.95v3.92h-5.95v2.85Z"/>
      <path class="cls-5" d="M195.64,222.06h6.62v3.92h-10.8v-17.1h4.17v13.18Z"/>
      <path class="cls-5" d="M217.19,222.06h6.62v3.92h-10.8v-17.1h4.17v13.18Z"/>
      <path class="cls-5" d="M234.34,224.23c0-1.37.68-2.05,2.05-2.05s2.03.68,2.03,2.05c0,.65-.18,1.16-.53,1.52-.35.37-.85.55-1.5.55s-1.17-.18-1.53-.54c-.35-.36-.52-.87-.52-1.54Z"/>
      <path class="cls-5" d="M256.36,220.48h-2v5.5h-4.17v-17.1h7.25c1.6,0,2.96.56,4.09,1.69s1.69,2.5,1.69,4.11c0,.98-.23,1.9-.69,2.76-.46.86-1.1,1.55-1.91,2.09l3.58,6.45h-4.75l-3.08-5.5ZM254.36,216.53h3.08c.5,0,.93-.18,1.3-.55.37-.37.55-.8.55-1.3,0-.53-.18-.98-.53-1.33-.35-.35-.79-.53-1.33-.53h-3.08v3.7Z"/>
      <path class="cls-5" d="M278.49,222.06h6.68v3.92h-10.85v-17.1h10.73v3.95h-6.55v2.45h5.95v3.92h-5.95v2.85Z"/>
      <path class="cls-5" d="M306.14,208.88h4.17v17.1h-3.48l-6.25-9.78v9.78h-4.17v-17.1h4.17l5.55,8.7v-8.7Z"/>
      <path class="cls-5" d="M333.56,212.83h-4.3v13.15h-4.15v-13.15h-4.33v-3.95h12.78v3.95Z"/>
    </g>
    <g>
      <path class="cls-4" d="M37.1,179.25c0,4.84-1.84,8.95-5.51,12.32-3.68,3.37-7.97,5.06-12.88,5.06s-9.52-1.83-13.2-5.49c-3.68-3.66-5.51-8.06-5.51-13.22s1.82-9.56,5.46-13.2c3.64-3.64,8.06-5.46,13.25-5.46,2.93,0,5.68.64,8.24,1.91,2.56,1.27,4.74,3.09,6.55,5.46l-6.89,5.46c-2.08-2.69-4.72-4.03-7.9-4.03-2.69,0-5.01.97-6.97,2.92-1.96,1.94-2.94,4.26-2.94,6.94s.98,5,2.94,6.94c1.96,1.94,4.28,2.92,6.97,2.92,3.18,0,5.74-1.25,7.69-3.76h-9.33v-8.37h20.03v3.6Z"/>
      <path class="cls-4" d="M62.8,184.24h-4.24v11.66h-8.85v-36.25h15.37c3.39,0,6.28,1.19,8.67,3.58s3.58,5.29,3.58,8.72c0,2.08-.49,4.04-1.46,5.86-.97,1.82-2.32,3.29-4.05,4.43l7.58,13.67h-10.07l-6.52-11.66ZM58.56,175.86h6.52c1.06,0,1.98-.39,2.76-1.17s1.17-1.7,1.17-2.76c0-1.13-.37-2.07-1.11-2.81-.74-.74-1.68-1.11-2.81-1.11h-6.52v7.84Z"/>
      <path class="cls-4" d="M89.62,159.65h8.85v36.25h-8.85v-36.25Z"/>
      <path class="cls-4" d="M136.1,159.65h8.8v36.25h-8.8v-14.36h-14.52v14.36h-8.85v-36.25h8.85v13.51h14.52v-13.51Z"/>
      <path class="cls-4" d="M181.47,195.9l-2.33-6.31h-12.46l-2.33,6.31h-9.43l13.25-36.25h9.43l13.3,36.25h-9.43ZM169.7,181.22h6.36l-3.13-8.74-3.23,8.74Z"/>
      <path class="cls-5" d="M226.78,176.39c2.23,2.23,3.34,4.89,3.34,8s-1.05,5.75-3.15,8.03c-2.1,2.28-4.69,3.42-7.76,3.42h-8.37v.05h-8.85v-36.25h16.32c2.86,0,5.3,1.06,7.31,3.18,2.01,2.12,3.02,4.63,3.02,7.53,0,2.16-.62,4.17-1.86,6.04ZM210.83,173.32l7.47-.11c.67,0,1.22-.25,1.64-.74s.64-1.1.64-1.8-.21-1.33-.64-1.85c-.42-.53-.97-.79-1.64-.79h-7.47v5.3ZM210.83,187.52h8.37c.74,0,1.36-.34,1.86-1.01.49-.67.74-1.4.74-2.17s-.25-1.49-.74-2.15c-.5-.65-1.11-.98-1.86-.98h-8.37v6.31Z"/>
      <path class="cls-5" d="M265.63,159.65h8.8v36.25h-8.8v-14.36h-14.52v14.36h-8.85v-36.25h8.85v13.51h14.52v-13.51Z"/>
      <path class="cls-4" d="M316.14,183.71c0,3.82-1.42,6.93-4.27,9.33-2.84,2.4-6.23,3.6-10.15,3.6s-7.3-1.18-10.12-3.55c-2.83-2.37-4.24-5.49-4.24-9.38v-24.06h8.8v24.06c0,1.31.57,2.32,1.72,3.05,1.15.72,2.43,1.09,3.84,1.09,1.52,0,2.84-.33,3.95-1.01,1.11-.67,1.67-1.71,1.67-3.13v-24.06h8.8v24.06Z"/>
      <path class="cls-4" d="M357.96,159.7v-.05h8.8v36.25h-8.8v-20.09l-8.43,14.15h-2.17l-8.43-14.15v20.09h-8.85v-36.25h8.85l9.49,15.85,9.49-15.85.05.05Z"/>
      <path class="cls-4" d="M381.01,159.65h8.85v36.25h-8.85v-36.25Z"/>
    </g>
  </g>
</svg>